# xmcd
# 
# Track frame offsets:
#     150
#     21035
#     36404
#     53448
#     73034
#     90173
#     102832
#     119471
#     140115
#     155380
#     172273
#     188446
#     233787
#     256865
# 
# Disc length: 3667
# 
# Revision: 4
# Processed by: cddbd v1.5.2PL0 Copyright (c) Steve Scherf et al.
# Submitted via: fre:ac v1.0.31
# 
DISCID=b30e510e
DTITLE=Zac Brown Band - You Get What You Give
DYEAR=2010
DGENRE=Country
TTITLE0=Let It Go
TTITLE1=Knee Deep
TTITLE2=No Hurry
TTITLE3=I Play The Road
TTITLE4=Cold Hearted
TTITLE5=Whiskey's Gone
TTITLE6=Quiet Your Mind
TTITLE7=Colder Weather
TTITLE8=Settle Me Down
TTITLE9=As She's Walking Away
TTITLE10=Keep Me In Mind
TTITLE11=Who Knows
TTITLE12=Martin
TTITLE13=Make This Day
EXTD=
EXTT0=
EXTT1=
EXTT2=
EXTT3=
EXTT4=
EXTT5=
EXTT6=
EXTT7=
EXTT8=
EXTT9=
EXTT10=
EXTT11=
EXTT12=
EXTT13=
PLAYORDER=
